<svg id="cart-icon-full" width="26" height="37" viewBox="0 0 26 37" fill="none" xmlns="http://www.w3.org/2000/svg">
    <rect x="1.45312" y="10.2808" width="23.4375" height="25" fill="#D6A858" />
    <path fill-rule="evenodd" clip-rule="evenodd" d="M4.39648 9.3194V6.06794C4.38696 4.86316 4.90308 3.29792 6.29932 2.05366C7.71167 0.79511 9.88794 -0.0199531 13.0098 0.000371578C16.1472 0.0207573 18.3081 0.899725 19.6973 2.17011C21.0508 3.4076 21.5764 4.93921 21.5571 6.07593V9.3194H26V36.5H0V9.3194H4.39648ZM7.39624 6.04676C7.39258 5.67023 7.56909 4.94056 8.29541 4.2934C9.00879 3.65766 10.3921 2.9834 12.9902 3.00031C15.5725 3.0171 16.9558 3.72834 17.6729 4.38404C18.4185 5.06568 18.563 5.78577 18.5576 6.02784L18.5571 6.04462V9.3194H7.39648V6.05414L7.39624 6.04676ZM4.39648 11.3194V15.204C4.39526 15.2282 4.39478 15.2524 4.39478 15.2769C4.39478 16.1124 5.06689 16.7897 5.89624 16.7897C6.72534 16.7897 7.39746 16.1124 7.39746 15.2769L7.39697 15.2435L7.39648 15.2217V11.3194H18.5571V15.2218C18.5564 15.2401 18.5562 15.2584 18.5562 15.2769C18.5562 16.1124 19.2285 16.7897 20.0576 16.7897C20.887 16.7897 21.5591 16.1124 21.5591 15.2769C21.5591 15.2507 21.5583 15.2248 21.5571 15.199V11.3194H24V34.5H2V11.3194H4.39648Z" fill="#D6A858" />
    <path d="M4.41968 11.3818V15.2665C4.41846 15.2906 4.41797 15.3149 4.41797 15.3393C4.41797 16.1748 5.09009 16.8522 5.91943 16.8522C6.74854 16.8522 7.42065 16.1748 7.42065 15.3393L7.42017 15.306L7.41968 15.2842V11.3818V9.38184H4.41968V11.3818Z" fill="black" />
    <path d="M18.5803 11.3818V15.2842C18.5796 15.3025 18.5793 15.3209 18.5793 15.3393C18.5793 16.1748 19.2517 16.8522 20.0808 16.8522C20.9102 16.8522 21.5823 16.1748 21.5823 15.3393C21.5823 15.3132 21.5815 15.2872 21.5803 15.2615V11.3818V9.38184H18.5803V11.3818Z" fill="black" />
</svg>